<?xml version="1.0" standalone="no"?>
<!DOCTYPE svg PUBLIC "-//W3C//DTD SVG 20010904//EN"
 "http://www.w3.org/TR/2001/REC-SVG-20010904/DTD/svg10.dtd">
<svg version="1.0" xmlns="http://www.w3.org/2000/svg"
 width="1024.000000pt" height="1024.000000pt" viewBox="0 0 1024.000000 1024.000000"
 preserveAspectRatio="xMidYMid meet">
<metadata>
Created by potrace 1.16, written by Peter Selinger 2001-2019
</metadata>
<g transform="translate(0.000000,1024.000000) scale(0.100000,-0.100000)"
fill="#000000" stroke="none">
<path d="M0 5120 l0 -5120 5120 0 5120 0 0 5120 0 5120 -5120 0 -5120 0 0
-5120z m1755 2270 c132 -11 411 -36 620 -56 209 -19 457 -41 550 -49 94 -8
267 -24 385 -35 118 -11 456 -43 750 -70 294 -27 632 -59 750 -70 118 -11 316
-29 440 -40 124 -11 326 -29 450 -40 246 -22 920 -81 1545 -135 220 -19 474
-41 565 -50 91 -8 271 -24 400 -35 129 -11 384 -34 565 -50 182 -16 381 -34
442 -38 86 -7 118 -13 133 -27 19 -17 20 -29 16 -374 -6 -510 -7 -548 -14
-531 -8 18 -48 25 -57 10 -3 -5 -16 -10 -28 -11 -15 -1 -9 -5 18 -14 34 -11
36 -14 14 -14 -15 -1 -29 -8 -33 -16 -4 -12 -2 -13 13 -5 14 7 21 6 23 -2 4
-10 10 -10 31 -1 24 11 27 10 27 -5 0 -15 -7 -18 -42 -16 -24 1 -50 -2 -58 -7
-10 -5 5 -9 45 -10 33 -1 50 -4 37 -6 -12 -2 -20 -9 -17 -14 6 -8 -23 -14 -54
-9 -9 1 -12 -4 -8 -14 4 -9 2 -16 -3 -16 -6 0 -10 -4 -10 -10 0 -5 15 -11 33
-11 l32 -2 -35 -6 c-23 -4 -31 -9 -22 -14 23 -15 12 -27 -25 -27 -48 0 -38 -8
17 -15 56 -7 64 -15 16 -15 -22 0 -35 -4 -31 -10 3 -5 -4 -11 -17 -12 -13 -1
-32 -3 -43 -4 -11 -1 -28 -2 -38 -3 -10 -1 -16 -5 -13 -10 4 -5 20 -7 37 -4
28 4 30 2 25 -19 -3 -13 -3 -17 0 -10 7 15 74 16 74 1 0 -6 -9 -9 -20 -6 -11
3 -20 2 -20 -2 0 -4 -12 -8 -27 -9 -40 -3 -41 -12 -2 -12 28 -1 31 -2 16 -11
-9 -5 -22 -7 -27 -4 -6 3 -10 -1 -10 -9 0 -12 -11 -16 -37 -17 -31 -1 -24 -4
31 -15 38 -7 70 -15 73 -17 2 -3 -28 -2 -67 1 -46 3 -70 1 -70 -6 0 -7 -10 -8
-32 -1 -48 13 -58 10 -19 -6 18 -9 65 -15 105 -15 121 -1 53 -18 -99 -25 -77
-3 -141 -8 -144 -11 -2 -2 40 -4 95 -4 99 0 100 0 102 -25 2 -25 0 -25 -76
-27 -68 -1 -72 -2 -32 -8 39 -6 41 -7 15 -10 -16 -2 -40 -4 -52 -4 -11 -1 -25
-4 -29 -8 -4 -5 24 -8 62 -8 65 0 69 -1 69 -22 0 -20 -6 -23 -40 -25 -88 -4
-175 -16 -175 -24 0 -5 3 -9 8 -10 25 -4 76 -7 136 -8 38 0 67 -4 64 -7 -10
-9 -39 -12 -125 -13 -48 -1 -83 -5 -83 -11 0 -5 9 -10 21 -10 11 0 17 -4 14
-10 -3 -6 5 -10 19 -10 13 0 27 6 29 13 4 8 8 9 14 1 4 -6 15 -14 23 -17 8 -3
-7 -6 -35 -6 -72 -2 -98 -10 -84 -27 9 -11 7 -14 -7 -15 -34 -2 59 -18 119
-20 87 -3 68 -17 -25 -18 -96 -1 -148 -9 -148 -23 0 -5 5 -6 10 -3 6 3 10 2
10 -4 0 -6 6 -8 13 -5 7 2 24 1 38 -4 24 -9 24 -10 -14 -28 -32 -15 -35 -20
-20 -25 14 -6 12 -8 -9 -8 -16 -1 -28 -6 -28 -12 0 -5 3 -8 8 -5 4 2 18 -2 32
-10 14 -7 21 -14 15 -14 -5 0 -3 -4 5 -10 11 -7 9 -11 -13 -19 -15 -6 -34 -8
-42 -5 -10 4 -15 0 -15 -14 0 -27 -28 -51 -39 -33 -6 8 -10 3 -14 -16 -12 -59
-68 -126 -135 -160 -35 -18 -57 -33 -48 -33 15 0 79 32 104 52 9 8 12 6 12 -6
0 -9 -8 -16 -18 -16 -10 0 -24 -8 -31 -19 -12 -16 -28 -18 -133 -19 -66 -1
-123 -3 -126 -7 -3 -3 42 -5 99 -6 104 -1 109 -2 57 -13 -16 -4 -28 -11 -28
-16 0 -6 12 -10 28 -11 33 -1 24 -4 -51 -19 -60 -12 -67 -19 -25 -25 88 -14
85 -25 -8 -26 -43 -1 -86 0 -94 1 -10 1 -9 -3 5 -14 23 -18 39 -21 30 -6 -3 6
4 10 15 10 15 0 20 -5 17 -14 -3 -8 -1 -17 6 -20 7 -2 -19 -5 -57 -5 -107 -1
-80 -13 49 -21 29 -2 33 -4 15 -7 -14 -3 -31 -9 -37 -15 -7 -6 -24 -7 -38 -4
-17 4 -23 3 -20 -6 3 -8 23 -13 55 -12 55 1 68 -11 20 -18 -17 -3 -30 0 -31 6
0 6 -3 5 -6 -1 -3 -8 -22 -13 -46 -13 -23 0 -49 -5 -57 -10 -15 -9 63 -14 180
-11 29 1 40 -1 32 -7 -7 -5 -33 -10 -58 -11 -25 0 -53 -5 -62 -10 -10 -5 -53
-9 -96 -10 -89 -2 -116 -10 -40 -12 27 -1 56 -3 64 -4 8 -1 23 -3 33 -4 10 0
15 -5 12 -11 -3 -5 2 -11 12 -11 10 -1 -18 -7 -62 -14 l-80 -12 60 -3 c33 -1
71 -6 85 -11 21 -7 19 -8 -12 -4 -23 2 -38 -1 -38 -7 0 -7 -4 -7 -12 -1 -7 6
-30 8 -51 5 -31 -3 -35 -7 -26 -18 8 -10 8 -14 0 -15 -57 -7 -46 -13 34 -19
l80 -6 -87 -2 c-51 -1 -88 -6 -88 -12 0 -6 38 -9 95 -8 52 0 97 -1 100 -4 3
-3 -39 -8 -93 -11 -108 -7 -128 -11 -136 -34 -5 -11 -2 -13 10 -9 9 4 23 1 30
-5 8 -6 21 -9 29 -5 27 10 46 -4 34 -25 -5 -11 -7 -24 -4 -29 8 -13 -7 -13
-40 0 -14 5 -24 7 -22 2 3 -4 -1 -12 -8 -19 -10 -10 -14 -9 -19 2 -3 8 -11 15
-18 15 -9 0 -8 -3 2 -10 13 -8 12 -10 -2 -10 -10 0 -18 -6 -18 -14 0 -9 13
-14 43 -14 63 -1 67 -1 67 -11 0 -5 -58 -12 -130 -16 -71 -4 -127 -11 -125
-16 3 -4 -9 -13 -27 -18 -31 -9 -31 -9 12 -6 25 2 71 4 103 4 32 1 56 4 54 9
-3 4 31 8 76 9 44 1 96 5 113 8 18 2 36 0 39 -5 4 -6 -6 -10 -22 -11 -15 0
-62 -4 -103 -9 -41 -5 -106 -12 -145 -16 -104 -9 -94 -16 18 -12 53 1 97 0 97
-4 0 -5 -17 -8 -37 -8 -28 0 -34 -3 -23 -10 12 -8 9 -10 -12 -10 -16 0 -28 6
-29 13 0 10 -2 10 -6 0 -2 -7 -14 -13 -24 -13 -11 0 -18 -4 -15 -9 3 -5 37 -6
76 -4 59 4 69 3 64 -10 -4 -11 -25 -15 -82 -17 -42 -1 -88 -3 -102 -5 -14 -1
-34 -3 -45 -4 l-20 -2 20 -9 c11 -5 35 -6 53 -3 17 3 32 1 32 -4 0 -5 9 -9 19
-9 11 0 17 4 14 9 -2 4 8 4 24 0 15 -4 39 -7 53 -6 24 1 24 1 5 -13 -12 -9
-14 -14 -5 -14 7 0 10 -3 7 -6 -4 -4 -12 -2 -19 4 -9 7 -45 8 -108 3 l-95 -8
93 -2 c72 -1 94 -4 98 -16 4 -10 22 -15 58 -16 60 -2 44 -5 -79 -16 l-90 -8
65 -5 64 -5 -34 -34 c-19 -18 -29 -30 -22 -27 6 4 12 3 12 -2 0 -14 -34 -25
-38 -13 -6 19 -32 12 -32 -9 0 -16 6 -20 33 -18 21 2 31 -1 29 -9 -1 -7 5 -13
13 -13 8 0 15 -4 15 -10 0 -5 -25 -10 -56 -10 -34 0 -53 -4 -49 -10 3 -6 17
-7 31 -4 13 3 36 3 52 -1 l27 -7 -35 -12 c-20 -7 -38 -8 -41 -3 -4 5 -9 5 -12
0 -4 -6 5 -15 19 -22 14 -6 23 -8 20 -3 -2 4 19 7 47 6 29 -1 72 -2 96 -3 66
-2 44 -11 -40 -16 -41 -3 -198 -14 -349 -25 -151 -11 -477 -31 -725 -45 -247
-14 -560 -32 -695 -40 -135 -8 -330 -19 -435 -25 -104 -6 -372 -21 -595 -35
-223 -14 -574 -34 -780 -45 -206 -11 -494 -27 -640 -35 -146 -8 -436 -24 -645
-35 -209 -11 -582 -31 -830 -45 -655 -37 -958 -52 -972 -47 -7 2 -10 8 -7 13
3 5 1 9 -4 9 -4 0 -18 9 -30 20 -12 12 -22 16 -22 10 0 -5 -10 -10 -23 -10
-13 0 -28 -5 -35 -12 -6 -6 -15 -8 -19 -4 -10 9 -15 3977 -6 4195 5 134 9 155
26 171 37 36 80 50 127 45 25 -3 153 -14 285 -25z m7950 -6647 c23 -60 96
-133 157 -158 27 -11 48 -23 48 -26 0 -4 -21 -14 -47 -24 -60 -23 -133 -96
-158 -157 -11 -27 -23 -48 -26 -48 -4 0 -14 21 -24 47 -23 60 -96 133 -157
158 -27 11 -48 23 -48 26 0 4 21 14 47 24 60 23 133 96 158 157 11 27 23 48
26 48 4 0 14 -21 24 -47z"/>
<path d="M2142 6163 l3 -188 205 -8 c113 -4 392 -16 621 -26 404 -18 418 -19
459 -42 58 -32 82 -81 88 -178 5 -89 -9 -148 -43 -189 -47 -56 -32 -56 -672
-38 -323 9 -605 16 -625 16 l-38 0 0 -490 0 -490 193 2 192 3 2 295 2 295 453
-3 c429 -4 457 -3 530 17 97 25 141 48 204 104 102 92 144 220 144 436 0 161
-16 247 -65 349 -61 129 -177 215 -333 247 -37 8 -254 23 -482 35 -228 11
-496 25 -594 30 -99 6 -195 10 -213 10 l-33 0 2 -187z"/>
<path d="M4030 5400 l0 -850 167 0 166 0 -7 670 -6 670 38 0 c20 0 172 -7 337
-15 319 -17 345 -22 385 -73 30 -38 43 -99 38 -187 -5 -91 -22 -133 -70 -167
-33 -23 -34 -23 -305 -19 l-273 3 0 -160 0 -159 61 -7 c34 -3 99 -6 145 -6
l82 0 120 -187 c65 -104 143 -227 172 -275 l53 -88 184 0 c100 0 183 4 183 8
0 10 -149 250 -264 425 -42 64 -79 123 -82 131 -4 10 5 16 25 21 41 9 140 76
167 112 39 53 75 134 90 202 18 87 18 297 -1 386 -41 195 -155 308 -350 350
-58 12 -883 65 -1017 65 l-38 0 0 -850z"/>
<path d="M5971 6135 c-92 -26 -139 -52 -200 -110 -110 -104 -163 -253 -183
-507 -13 -175 0 -394 32 -528 58 -240 192 -380 405 -425 97 -20 493 -20 588 0
286 60 417 293 417 743 0 341 -58 549 -190 683 -115 117 -222 145 -578 153
-195 5 -247 3 -291 -9z m409 -320 c166 -7 215 -22 268 -79 68 -74 102 -209
102 -413 0 -259 -62 -400 -194 -438 -83 -24 -429 -18 -494 10 -97 40 -152 146
-173 330 -22 197 6 419 65 503 46 67 141 104 246 96 25 -2 106 -6 180 -9z"/>
</g>
</svg>
